<?xml version="1.0" encoding="UTF-8" standalone="no"?>
<svg width="62px" height="26px" viewBox="0 0 62 26" version="1.1" xmlns="http://www.w3.org/2000/svg" xmlns:xlink="http://www.w3.org/1999/xlink" xmlns:sketch="http://www.bohemiancoding.com/sketch/ns">
    <!-- Generator: Sketch Beta 3.3 (11970) - http://www.bohemiancoding.com/sketch -->
    <title>ic-app-title</title>
    <desc>Created with Sketch Beta.</desc>
    <defs></defs>
    <g id="Page-1" stroke="none" stroke-width="1" fill="none" fill-rule="evenodd" sketch:type="MSPage">
        <g id="Icons" sketch:type="MSArtboardGroup" transform="translate(-78.000000, -13.000000)" fill="#EAEAEA">
            <path d="M79.614,26.026 C79.614,26.7886705 79.717999,27.5123299 79.926,28.197 C80.134001,28.8816701 80.4329981,29.4796641 80.823,29.991 C81.213002,30.5023359 81.6896638,30.9096652 82.253,31.213 C82.8163362,31.5163348 83.4533298,31.668 84.164,31.668 C84.9613373,31.668 85.658997,31.5076683 86.257,31.187 C86.855003,30.8663317 87.3446648,30.4286694 87.726,29.874 C88.1073352,29.3193306 88.3846658,28.6736704 88.558,27.937 C88.7313342,27.2003297 88.8006668,26.4073376 88.766,25.558 C88.766,24.7086624 88.6490012,23.9590033 88.415,23.309 C88.1809988,22.6589968 87.8560021,22.1086689 87.44,21.658 C87.0239979,21.2073311 86.5386694,20.8650012 85.984,20.631 C85.4293306,20.3969988 84.82267,20.28 84.164,20.28 C83.4359964,20.28 82.7860029,20.4273319 82.214,20.722 C81.6419971,21.0166681 81.1653352,21.4196641 80.784,21.931 C80.4026648,22.4423359 80.1123343,23.0489965 79.913,23.751 C79.7136657,24.4530035 79.614,25.2113293 79.614,26.026 L79.614,26.026 Z M79.614,38.012 L78.054,38.012 L78.054,19.24 L79.614,19.24 L79.614,21.606 L79.666,21.606 C79.8913345,21.1726645 80.1816649,20.7826684 80.537,20.436 C80.8923351,20.0893316 81.2823312,19.8033345 81.707,19.578 C82.1316688,19.3526655 82.5693311,19.1793339 83.02,19.058 C83.4706689,18.9366661 83.9126645,18.876 84.346,18.876 C85.4380055,18.876 86.3653295,19.0579982 87.128,19.422 C87.8906705,19.7860018 88.5189975,20.2843302 89.013,20.917 C89.5070025,21.5496698 89.8666655,22.299329 90.092,23.166 C90.3173345,24.032671 90.43,24.9599951 90.43,25.948 C90.43,26.8840047 90.3086679,27.785329 90.066,28.652 C89.8233321,29.518671 89.4550025,30.2769968 88.961,30.927 C88.4669975,31.5770032 87.8430038,32.096998 87.089,32.487 C86.3349962,32.877002 85.4466718,33.072 84.424,33.072 C83.4706619,33.072 82.5563377,32.8596688 81.681,32.435 C80.8056623,32.0103312 80.1166692,31.3820042 79.614,30.55 L79.614,38.012 Z M92.792,32.708 L92.792,13.988 L94.352,13.988 L94.352,32.708 L92.792,32.708 Z M106.256,19.24 L107.816,19.24 L107.816,32.708 L106.256,32.708 L106.256,30.836 C106.047999,31.0786679 105.814001,31.3299987 105.554,31.59 C105.293999,31.8500013 104.995002,32.0883323 104.657,32.305 C104.318998,32.5216677 103.924669,32.7036659 103.474,32.851 C103.023331,32.9983341 102.503336,33.072 101.914,33.072 C101.012662,33.072 100.25867,32.9463346 99.6519999,32.695 C99.0453302,32.4436654 98.5556684,32.0926689 98.1829999,31.642 C97.8103314,31.1913311 97.5416674,30.667003 97.3769999,30.069 C97.2123324,29.470997 97.1299999,28.8166702 97.1299999,28.106 L97.1299999,19.24 L98.6899999,19.24 L98.6899999,28.08 C98.6899999,29.2413391 98.9586639,30.1296636 99.4959999,30.745 C100.033336,31.3603364 100.917327,31.668 102.148,31.668 C102.789336,31.668 103.365664,31.5423346 103.877,31.291 C104.388336,31.0396654 104.817332,30.6886689 105.164,30.238 C105.510668,29.7873311 105.779332,29.2500031 105.97,28.626 C106.160668,28.0019969 106.256,27.3173371 106.256,26.572 L106.256,19.24 Z M115.118,32.76 C114.927332,32.7946668 114.676001,32.8553329 114.364,32.942 C114.051998,33.0286671 113.705335,33.072 113.324,33.072 C112.543996,33.072 111.950335,32.877002 111.543,32.487 C111.135664,32.096998 110.932,31.3993384 110.932,30.394 L110.932,20.54 L109.034,20.54 L109.034,19.24 L110.932,19.24 L110.932,15.496 L112.492,15.496 L112.492,19.24 L115.014,19.24 L115.014,20.54 L112.492,20.54 L112.492,29.77 C112.492,30.099335 112.500666,30.3853321 112.518,30.628 C112.535333,30.8706679 112.587333,31.0699992 112.674,31.226 C112.760667,31.3820008 112.894999,31.4946663 113.077,31.564 C113.259001,31.6333337 113.514665,31.668 113.844,31.668 C114.052001,31.668 114.264332,31.6506668 114.481,31.616 C114.697668,31.5813332 114.909999,31.5380003 115.118,31.486 L115.118,32.76 Z M125.54,19.24 L127.1,19.24 L127.1,32.708 L125.54,32.708 L125.54,30.836 C125.331999,31.0786679 125.098001,31.3299987 124.838,31.59 C124.577999,31.8500013 124.279001,32.0883323 123.941,32.305 C123.602998,32.5216677 123.208669,32.7036659 122.758,32.851 C122.307331,32.9983341 121.787336,33.072 121.198,33.072 C120.296662,33.072 119.54267,32.9463346 118.936,32.695 C118.32933,32.4436654 117.839668,32.0926689 117.467,31.642 C117.094331,31.1913311 116.825667,30.667003 116.661,30.069 C116.496332,29.470997 116.414,28.8166702 116.414,28.106 L116.414,19.24 L117.974,19.24 L117.974,28.08 C117.974,29.2413391 118.242664,30.1296636 118.78,30.745 C119.317336,31.3603364 120.201327,31.668 121.432,31.668 C122.073336,31.668 122.649664,31.5423346 123.161,31.291 C123.672336,31.0396654 124.101331,30.6886689 124.448,30.238 C124.794668,29.7873311 125.063332,29.2500031 125.254,28.626 C125.444667,28.0019969 125.54,27.3173371 125.54,26.572 L125.54,19.24 Z M130.58,28.496 C130.822668,29.6573391 131.26033,30.4763309 131.893,30.953 C132.52567,31.4296691 133.431327,31.668 134.61,31.668 C135.182003,31.668 135.675998,31.5986674 136.092,31.46 C136.508002,31.3213326 136.850332,31.1350012 137.119,30.901 C137.387668,30.6669988 137.591332,30.4026681 137.73,30.108 C137.868667,29.8133319 137.938,29.501335 137.938,29.172 C137.938,28.51333 137.725669,28.0236683 137.301,27.703 C136.876331,27.3823317 136.343336,27.1310009 135.702,26.949 C135.060663,26.7669991 134.367337,26.6110007 133.622,26.481 C132.876663,26.3509994 132.183336,26.1560013 131.542,25.896 C130.900663,25.6359987 130.367669,25.2633358 129.943,24.778 C129.518331,24.2926642 129.306,23.6080044 129.306,22.724 C129.306,21.5973277 129.717662,20.6743369 130.541,19.955 C131.364337,19.2356631 132.529992,18.876 134.038,18.876 C135.494007,18.876 136.676995,19.2009967 137.587,19.851 C138.497004,20.5010032 139.047332,21.588659 139.238,23.114 L137.652,23.114 C137.513332,22.0739948 137.119003,21.3416688 136.469,20.917 C135.818997,20.4923312 135.000005,20.28 134.012,20.28 C133.023995,20.28 132.270002,20.4923312 131.75,20.917 C131.229997,21.3416688 130.97,21.9006632 130.97,22.594 C130.97,23.2006697 131.182331,23.6643317 131.607,23.985 C132.031669,24.3056683 132.564663,24.5656657 133.206,24.765 C133.847336,24.9643343 134.540663,25.1419992 135.286,25.298 C136.031337,25.4540008 136.724663,25.6749986 137.366,25.961 C138.007336,26.2470014 138.540331,26.6326642 138.965,27.118 C139.389669,27.6033358 139.602,28.279329 139.602,29.146 C139.602,29.7873365 139.463334,30.3549975 139.186,30.849 C138.908665,31.3430025 138.527336,31.754665 138.042,32.084 C137.556664,32.413335 136.980336,32.6603325 136.313,32.825 C135.645663,32.9896675 134.913337,33.072 134.116,33.072 C133.318662,33.072 132.612336,32.9550012 131.997,32.721 C131.381663,32.4869988 130.857335,32.1620021 130.424,31.746 C129.990664,31.3299979 129.652668,30.8446694 129.41,30.29 C129.167332,29.7353306 129.028667,29.1373365 128.994,28.496 L130.58,28.496 Z" id="ic-app-title" sketch:type="MSShapeGroup"></path>
        </g>
    </g>
</svg>