<?xml version="1.0" encoding="UTF-8" standalone="no"?>
<svg width="52px" height="52px" viewBox="0 0 52 52" version="1.1" xmlns="http://www.w3.org/2000/svg" xmlns:xlink="http://www.w3.org/1999/xlink" xmlns:sketch="http://www.bohemiancoding.com/sketch/ns">
    <!-- Generator: Sketch Beta 3.3 (11970) - http://www.bohemiancoding.com/sketch -->
    <title>ic-correction</title>
    <desc>Created with Sketch Beta.</desc>
    <defs></defs>
    <g id="Page-1" stroke="none" stroke-width="1" fill="none" fill-rule="evenodd" sketch:type="MSPage">
        <g id="Icons" sketch:type="MSArtboardGroup" transform="translate(-307.000000, -150.000000)">
            <g id="ic-correction" sketch:type="MSLayerGroup" transform="translate(308.000000, 151.000000)">
                <path d="M25,50 C38.8071187,50 50,38.8071187 50,25 C50,11.1928813 38.8071187,0 25,0 C11.1928813,0 0,11.1928813 0,25 C0,38.8071187 11.1928813,50 25,50 Z" id="ic-add-expense" stroke="#4990E2" stroke-width="2" sketch:type="MSShapeGroup"></path>
                <path d="M20.84,22.04 C21.5600036,22.04 22.3266626,22.1866652 23.14,22.48 C23.9533374,22.7733348 24.7466628,23.1066648 25.52,23.48 C26.320004,23.8533352 27.0733298,24.1866652 27.78,24.48 C28.4866702,24.7733348 29.106664,24.92 29.64,24.92 C30.0933356,24.92 30.519998,24.8066678 30.92,24.58 C31.320002,24.3533322 31.686665,24.0666684 32.02,23.72 C32.353335,23.3733316 32.653332,23.000002 32.92,22.6 C33.186668,22.199998 33.4133324,21.8133352 33.6,21.44 L35.2,22.8 C34.9066652,23.333336 34.5800018,23.8599974 34.22,24.38 C33.8599982,24.9000026 33.446669,25.3666646 32.98,25.78 C32.513331,26.1933354 32.0000028,26.5266654 31.44,26.78 C30.8799972,27.0333346 30.26667,27.16 29.6,27.16 C29.2266648,27.16 28.8000024,27.1000006 28.32,26.98 C27.8399976,26.8599994 27.3533358,26.7133342 26.86,26.54 C26.3666642,26.3666658 25.886669,26.180001 25.42,25.98 C24.953331,25.779999 24.5466684,25.613334 24.2,25.48 C23.666664,25.2666656 23.1200028,25.0133348 22.56,24.72 C21.9999972,24.4266652 21.4266696,24.28 20.84,24.28 C20.306664,24.28 19.8266688,24.3999988 19.4,24.64 C18.9733312,24.8800012 18.5866684,25.1866648 18.24,25.56 C17.8933316,25.9333352 17.5800014,26.3399978 17.3,26.78 C17.0199986,27.2200022 16.7600012,27.639998 16.52,28.04 L15.2,26.16 C15.4933348,25.7333312 15.8199982,25.2800024 16.18,24.8 C16.5400018,24.3199976 16.9466644,23.8733354 17.4,23.46 C17.8533356,23.0466646 18.3599972,22.706668 18.92,22.44 C19.4800028,22.173332 20.1199964,22.04 20.84,22.04 L20.84,22.04 Z" id="~" fill="#4990E2" sketch:type="MSShapeGroup"></path>
            </g>
        </g>
    </g>
</svg>